<svg xmlns="http://www.w3.org/2000/svg" viewBox="0 0 32 32"><defs><style>.cls-1{fill:none;}.cls-2{fill:#757575;}</style></defs><g id="Layer_2" data-name="Layer 2"><g id="Layer_1-2" data-name="Layer 1"><circle class="cls-1" cx="16" cy="16" r="16"/><circle class="cls-2" cx="16" cy="16.67" r="2.13"/><path class="cls-2" d="M14,10l-1.22,1.33H10.67a1.34,1.34,0,0,0-1.34,1.34v8A1.34,1.34,0,0,0,10.67,22H21.33a1.34,1.34,0,0,0,1.34-1.33v-8a1.34,1.34,0,0,0-1.34-1.34H19.22L18,10Zm2,10a3.34,3.34,0,1,1,3.33-3.33A3.33,3.33,0,0,1,16,20Z"/></g></g></svg>