<svg xmlns="http://www.w3.org/2000/svg" xmlns:xlink="http://www.w3.org/1999/xlink" viewBox="0 0 32 32"><defs><style>.cls-1{fill:#eaeaea;}.cls-2{fill:url(#linear-gradient);}.cls-3{fill:url(#linear-gradient-2);}.cls-4{fill:#4aaad7;}.cls-5{fill:#3798c6;}.cls-6{fill:#b69930;}.cls-7{fill:#fff;}.cls-8{fill:none;}</style><linearGradient id="linear-gradient" x1="19.49" y1="17.27" x2="19.49" y2="26.43" gradientTransform="translate(-8.26 19.57) rotate(-45)" gradientUnits="userSpaceOnUse"><stop offset="0" stop-color="#f2a427"/><stop offset="0.84" stop-color="#de9026"/></linearGradient><linearGradient id="linear-gradient-2" x1="11.97" y1="8.49" x2="17.52" y2="21.21" gradientUnits="userSpaceOnUse"><stop offset="0" stop-color="#5abbea"/><stop offset="0.84" stop-color="#3aa4d8"/></linearGradient></defs><g id="Layer_2" data-name="Layer 2"><g id="Layer_1-2" data-name="Layer 1"><rect class="cls-1" x="16.37" y="17.3" width="2.47" height="1.15" transform="translate(17.8 -7.22) rotate(45)"/><rect class="cls-2" x="16.72" y="18.78" width="5.54" height="1.96" rx="0.98" transform="translate(19.68 -7.99) rotate(45)"/><path class="cls-3" d="M14.46,10a4.19,4.19,0,1,0,4.19,4.19A4.19,4.19,0,0,0,14.46,10Zm0,6.83a2.64,2.64,0,1,1,2.64-2.64A2.64,2.64,0,0,1,14.46,16.83Z"/><path class="cls-4" d="M17.25,14a2.64,2.64,0,0,0-4.82-1.5,2.64,2.64,0,0,1,4.2,3.19A2.62,2.62,0,0,0,17.25,14Z"/><path class="cls-5" d="M14.56,18.29a4.18,4.18,0,0,1-4.19-4.19,4.14,4.14,0,0,1,1.3-3,4.19,4.19,0,1,0,5.68,6.15A4.14,4.14,0,0,1,14.56,18.29Z"/><path class="cls-6" d="M16.28,15.81a2.44,2.44,0,1,1-3.44-3.44,2.44,2.44,0,0,0,3.44,3.44Z"/><path class="cls-7" d="M16.26,15.38a1.9,1.9,0,0,0,0-.41,2.16,2.16,0,0,0-4-1.19,2.16,2.16,0,0,1,4.28.41A2.11,2.11,0,0,1,16.26,15.38Z"/><circle class="cls-8" cx="16" cy="16" r="16"/></g></g></svg>