<svg xmlns="http://www.w3.org/2000/svg" viewBox="0 0 32 32"><defs><style>.cls-1{fill:none;}.cls-2{fill:#4285f4;}.cls-3{fill:#34a853;}.cls-4{fill:#ea4335;}.cls-5{fill:#fbbc05;}</style></defs><g id="Layer_2" data-name="Layer 2"><g id="Layer_1-2" data-name="Layer 1"><circle class="cls-1" cx="16" cy="16" r="16"/><rect class="cls-2" x="14.23" y="10" width="3.53" height="7.81" rx="1.77"/><rect class="cls-3" x="15.41" y="20.01" width="1.2" height="1.99"/><path class="cls-4" d="M20,16.05H18.79c0,.1,0,.2,0,.3a2.81,2.81,0,0,1-5,1.72l-.9.82A4,4,0,0,0,20,16.35C20,16.25,20,16.15,20,16.05Z"/><path class="cls-5" d="M13.19,16.35c0-.1,0-.2,0-.3H12c0,.1,0,.2,0,.3a4,4,0,0,0,.9,2.54l.9-.82A2.86,2.86,0,0,1,13.19,16.35Z"/></g></g></svg>